<mxfile host="Electron" agent="Mozilla/5.0 (Windows NT 10.0; Win64; x64) AppleWebKit/537.36 (KHTML, like Gecko) draw.io/26.2.2 Chrome/134.0.6998.178 Electron/35.1.2 Safari/537.36" version="26.2.2">
  <diagram name="Page-1" id="0783ab3e-0a74-02c8-0abd-f7b4e66b4bec">
    <mxGraphModel dx="1044" dy="626" grid="1" gridSize="10" guides="1" tooltips="1" connect="1" arrows="1" fold="1" page="1" pageScale="1" pageWidth="850" pageHeight="1100" background="none" math="0" shadow="0">
      <root>
        <mxCell id="0" />
        <mxCell id="1" parent="0" />
        <mxCell id="1c1d494c118603dd-1" value="Remove / Edit Product" style="swimlane;html=1;childLayout=stackLayout;startSize=20;rounded=0;shadow=0;comic=0;labelBackgroundColor=none;strokeWidth=1;fontFamily=Verdana;fontSize=12;align=center;" parent="1" vertex="1">
          <mxGeometry x="230" y="40" width="370" height="900" as="geometry" />
        </mxCell>
        <mxCell id="1c1d494c118603dd-4" value="Member" style="swimlane;html=1;startSize=20;" parent="1c1d494c118603dd-1" vertex="1">
          <mxGeometry y="20" width="370" height="880" as="geometry" />
        </mxCell>
        <mxCell id="gvlMV5cgWpwNSum2n3JV-2" value="" style="edgeStyle=orthogonalEdgeStyle;rounded=0;orthogonalLoop=1;jettySize=auto;html=1;" edge="1" parent="1c1d494c118603dd-4" source="60571a20871a0731-4" target="gvlMV5cgWpwNSum2n3JV-1">
          <mxGeometry relative="1" as="geometry" />
        </mxCell>
        <mxCell id="60571a20871a0731-4" value="" style="ellipse;whiteSpace=wrap;html=1;rounded=0;shadow=0;comic=0;labelBackgroundColor=none;strokeWidth=1;fillColor=#000000;fontFamily=Verdana;fontSize=12;align=center;" parent="1c1d494c118603dd-4" vertex="1">
          <mxGeometry x="165" y="40" width="40" height="40" as="geometry" />
        </mxCell>
        <mxCell id="60571a20871a0731-5" value="" style="shape=mxgraph.bpmn.shape;html=1;verticalLabelPosition=bottom;labelBackgroundColor=#ffffff;verticalAlign=top;perimeter=ellipsePerimeter;outline=end;symbol=terminate;rounded=0;shadow=0;comic=0;strokeWidth=1;fontFamily=Verdana;fontSize=12;align=center;" parent="1c1d494c118603dd-4" vertex="1">
          <mxGeometry x="165" y="790" width="40" height="40" as="geometry" />
        </mxCell>
        <mxCell id="gvlMV5cgWpwNSum2n3JV-5" value="" style="edgeStyle=orthogonalEdgeStyle;rounded=0;orthogonalLoop=1;jettySize=auto;html=1;" edge="1" parent="1c1d494c118603dd-4" source="gvlMV5cgWpwNSum2n3JV-1" target="gvlMV5cgWpwNSum2n3JV-4">
          <mxGeometry relative="1" as="geometry" />
        </mxCell>
        <mxCell id="gvlMV5cgWpwNSum2n3JV-1" value="" style="rounded=1;whiteSpace=wrap;html=1;" vertex="1" parent="1c1d494c118603dd-4">
          <mxGeometry x="125" y="130" width="120" height="50" as="geometry" />
        </mxCell>
        <mxCell id="gvlMV5cgWpwNSum2n3JV-3" value="Go to profile page" style="text;html=1;align=center;verticalAlign=middle;whiteSpace=wrap;rounded=0;" vertex="1" parent="1c1d494c118603dd-4">
          <mxGeometry x="150" y="140" width="70" height="30" as="geometry" />
        </mxCell>
        <mxCell id="gvlMV5cgWpwNSum2n3JV-8" value="" style="edgeStyle=orthogonalEdgeStyle;rounded=0;orthogonalLoop=1;jettySize=auto;html=1;" edge="1" parent="1c1d494c118603dd-4" source="gvlMV5cgWpwNSum2n3JV-4" target="gvlMV5cgWpwNSum2n3JV-7">
          <mxGeometry relative="1" as="geometry" />
        </mxCell>
        <mxCell id="gvlMV5cgWpwNSum2n3JV-4" value="" style="rounded=1;whiteSpace=wrap;html=1;" vertex="1" parent="1c1d494c118603dd-4">
          <mxGeometry x="125" y="240" width="120" height="50" as="geometry" />
        </mxCell>
        <mxCell id="gvlMV5cgWpwNSum2n3JV-6" value="Click on Dashboard" style="text;html=1;align=center;verticalAlign=middle;whiteSpace=wrap;rounded=0;" vertex="1" parent="1c1d494c118603dd-4">
          <mxGeometry x="155" y="250" width="60" height="30" as="geometry" />
        </mxCell>
        <mxCell id="gvlMV5cgWpwNSum2n3JV-13" value="" style="edgeStyle=orthogonalEdgeStyle;rounded=0;orthogonalLoop=1;jettySize=auto;html=1;" edge="1" parent="1c1d494c118603dd-4" source="gvlMV5cgWpwNSum2n3JV-7">
          <mxGeometry relative="1" as="geometry">
            <mxPoint x="185" y="470" as="targetPoint" />
          </mxGeometry>
        </mxCell>
        <mxCell id="gvlMV5cgWpwNSum2n3JV-7" value="" style="rounded=1;whiteSpace=wrap;html=1;" vertex="1" parent="1c1d494c118603dd-4">
          <mxGeometry x="125" y="350" width="120" height="50" as="geometry" />
        </mxCell>
        <mxCell id="gvlMV5cgWpwNSum2n3JV-9" value="Select the Product" style="text;html=1;align=center;verticalAlign=middle;whiteSpace=wrap;rounded=0;" vertex="1" parent="1c1d494c118603dd-4">
          <mxGeometry x="155" y="360" width="60" height="30" as="geometry" />
        </mxCell>
        <mxCell id="gvlMV5cgWpwNSum2n3JV-11" value="" style="shape=line;html=1;strokeWidth=6;strokeColor=#000000;direction=west;" vertex="1" parent="1c1d494c118603dd-4">
          <mxGeometry x="85" y="470" width="200" height="10" as="geometry" />
        </mxCell>
        <mxCell id="gvlMV5cgWpwNSum2n3JV-14" value="" style="rounded=1;whiteSpace=wrap;html=1;" vertex="1" parent="1c1d494c118603dd-4">
          <mxGeometry x="30" y="550" width="120" height="40" as="geometry" />
        </mxCell>
        <mxCell id="gvlMV5cgWpwNSum2n3JV-15" value="" style="rounded=1;whiteSpace=wrap;html=1;" vertex="1" parent="1c1d494c118603dd-4">
          <mxGeometry x="220" y="550" width="120" height="40" as="geometry" />
        </mxCell>
        <mxCell id="gvlMV5cgWpwNSum2n3JV-18" style="edgeStyle=orthogonalEdgeStyle;rounded=0;orthogonalLoop=1;jettySize=auto;html=1;exitX=0.25;exitY=0.5;exitDx=0;exitDy=0;exitPerimeter=0;entryX=0.56;entryY=-0.03;entryDx=0;entryDy=0;entryPerimeter=0;" edge="1" parent="1c1d494c118603dd-4" source="gvlMV5cgWpwNSum2n3JV-11" target="gvlMV5cgWpwNSum2n3JV-15">
          <mxGeometry relative="1" as="geometry" />
        </mxCell>
        <mxCell id="gvlMV5cgWpwNSum2n3JV-19" style="edgeStyle=orthogonalEdgeStyle;rounded=0;orthogonalLoop=1;jettySize=auto;html=1;exitX=0.75;exitY=0.5;exitDx=0;exitDy=0;exitPerimeter=0;entryX=0.443;entryY=-0.03;entryDx=0;entryDy=0;entryPerimeter=0;" edge="1" parent="1c1d494c118603dd-4" source="gvlMV5cgWpwNSum2n3JV-11" target="gvlMV5cgWpwNSum2n3JV-14">
          <mxGeometry relative="1" as="geometry" />
        </mxCell>
        <mxCell id="gvlMV5cgWpwNSum2n3JV-20" value="Edite" style="text;html=1;align=center;verticalAlign=middle;whiteSpace=wrap;rounded=0;" vertex="1" parent="1c1d494c118603dd-4">
          <mxGeometry x="60" y="555" width="60" height="30" as="geometry" />
        </mxCell>
        <mxCell id="gvlMV5cgWpwNSum2n3JV-21" value="Delete" style="text;html=1;align=center;verticalAlign=middle;whiteSpace=wrap;rounded=0;" vertex="1" parent="1c1d494c118603dd-4">
          <mxGeometry x="250" y="555" width="60" height="30" as="geometry" />
        </mxCell>
        <mxCell id="gvlMV5cgWpwNSum2n3JV-26" value="" style="edgeStyle=orthogonalEdgeStyle;rounded=0;orthogonalLoop=1;jettySize=auto;html=1;" edge="1" parent="1c1d494c118603dd-4" source="gvlMV5cgWpwNSum2n3JV-22" target="60571a20871a0731-5">
          <mxGeometry relative="1" as="geometry" />
        </mxCell>
        <mxCell id="gvlMV5cgWpwNSum2n3JV-22" value="" style="shape=line;html=1;strokeWidth=6;strokeColor=#000000;" vertex="1" parent="1c1d494c118603dd-4">
          <mxGeometry x="85" y="680" width="200" height="10" as="geometry" />
        </mxCell>
        <mxCell id="gvlMV5cgWpwNSum2n3JV-24" style="edgeStyle=orthogonalEdgeStyle;rounded=0;orthogonalLoop=1;jettySize=auto;html=1;entryX=0.75;entryY=0.5;entryDx=0;entryDy=0;entryPerimeter=0;" edge="1" parent="1c1d494c118603dd-4" source="gvlMV5cgWpwNSum2n3JV-21" target="gvlMV5cgWpwNSum2n3JV-22">
          <mxGeometry relative="1" as="geometry" />
        </mxCell>
        <mxCell id="gvlMV5cgWpwNSum2n3JV-25" style="edgeStyle=orthogonalEdgeStyle;rounded=0;orthogonalLoop=1;jettySize=auto;html=1;entryX=0.25;entryY=0.5;entryDx=0;entryDy=0;entryPerimeter=0;" edge="1" parent="1c1d494c118603dd-4" source="gvlMV5cgWpwNSum2n3JV-14" target="gvlMV5cgWpwNSum2n3JV-22">
          <mxGeometry relative="1" as="geometry" />
        </mxCell>
      </root>
    </mxGraphModel>
  </diagram>
</mxfile>
